<mxfile host="app.diagrams.net" modified="2021-11-27T20:16:58.177Z" agent="5.0 (Windows)" etag="uQ_-3hgBJVtVlo0jwqVY" version="15.8.6" type="github">
  <diagram id="-9hg9eVJG7kxrBAUTR_8" name="Page-1">
    <mxGraphModel dx="730" dy="580" grid="0" gridSize="10" guides="1" tooltips="1" connect="1" arrows="1" fold="1" page="1" pageScale="1" pageWidth="850" pageHeight="1100" background="#FFCE9F" math="0" shadow="0">
      <root>
        <mxCell id="0" />
        <mxCell id="1" parent="0" />
        <mxCell id="r9CkXue-bHdeNtXBqur1-1" value="&lt;b&gt;Method a: &lt;/b&gt;public static boolean validLen(String str);" style="text;html=1;align=center;verticalAlign=middle;resizable=0;points=[];autosize=1;strokeColor=none;fillColor=none;" vertex="1" parent="1">
          <mxGeometry x="438" y="17" width="290" height="18" as="geometry" />
        </mxCell>
        <mxCell id="r9CkXue-bHdeNtXBqur1-6" style="edgeStyle=orthogonalEdgeStyle;rounded=0;orthogonalLoop=1;jettySize=auto;html=1;exitX=0.5;exitY=1;exitDx=0;exitDy=0;" edge="1" parent="1" source="r9CkXue-bHdeNtXBqur1-2">
          <mxGeometry relative="1" as="geometry">
            <mxPoint x="348" y="88" as="targetPoint" />
          </mxGeometry>
        </mxCell>
        <mxCell id="r9CkXue-bHdeNtXBqur1-2" value="Start: validLen(str)" style="ellipse;whiteSpace=wrap;html=1;" vertex="1" parent="1">
          <mxGeometry x="296" y="5" width="103" height="50" as="geometry" />
        </mxCell>
        <mxCell id="r9CkXue-bHdeNtXBqur1-5" style="edgeStyle=orthogonalEdgeStyle;rounded=0;orthogonalLoop=1;jettySize=auto;html=1;exitX=1;exitY=0.5;exitDx=0;exitDy=0;" edge="1" parent="1" source="r9CkXue-bHdeNtXBqur1-3">
          <mxGeometry relative="1" as="geometry">
            <mxPoint x="447" y="129" as="targetPoint" />
          </mxGeometry>
        </mxCell>
        <mxCell id="r9CkXue-bHdeNtXBqur1-11" style="edgeStyle=orthogonalEdgeStyle;rounded=0;orthogonalLoop=1;jettySize=auto;html=1;exitX=0.5;exitY=1;exitDx=0;exitDy=0;" edge="1" parent="1" source="r9CkXue-bHdeNtXBqur1-3">
          <mxGeometry relative="1" as="geometry">
            <mxPoint x="345" y="202" as="targetPoint" />
          </mxGeometry>
        </mxCell>
        <mxCell id="r9CkXue-bHdeNtXBqur1-3" value="&lt;div&gt;str.length()&lt;/div&gt;&lt;div&gt;==&lt;/div&gt;&lt;div&gt;13&lt;br&gt;&lt;/div&gt;" style="rhombus;whiteSpace=wrap;html=1;" vertex="1" parent="1">
          <mxGeometry x="285" y="89" width="120" height="80" as="geometry" />
        </mxCell>
        <mxCell id="r9CkXue-bHdeNtXBqur1-4" value="return true" style="ellipse;whiteSpace=wrap;html=1;" vertex="1" parent="1">
          <mxGeometry x="458" y="108" width="113" height="54" as="geometry" />
        </mxCell>
        <mxCell id="r9CkXue-bHdeNtXBqur1-7" value="Yes" style="text;html=1;align=center;verticalAlign=middle;resizable=0;points=[];autosize=1;strokeColor=none;fillColor=none;" vertex="1" parent="1">
          <mxGeometry x="413" y="94" width="30" height="18" as="geometry" />
        </mxCell>
        <mxCell id="r9CkXue-bHdeNtXBqur1-10" value="return false" style="ellipse;whiteSpace=wrap;html=1;" vertex="1" parent="1">
          <mxGeometry x="286" y="203" width="113" height="54" as="geometry" />
        </mxCell>
        <mxCell id="r9CkXue-bHdeNtXBqur1-12" value="&lt;b&gt;Method b:&lt;/b&gt; public static " style="text;html=1;align=center;verticalAlign=middle;resizable=0;points=[];autosize=1;strokeColor=none;fillColor=none;" vertex="1" parent="1">
          <mxGeometry x="443" y="287" width="133" height="18" as="geometry" />
        </mxCell>
      </root>
    </mxGraphModel>
  </diagram>
</mxfile>
